<svg width="24" height="15" viewBox="0 0 24 15" fill="none" xmlns="http://www.w3.org/2000/svg">
<path d="M14.8342 10.2538H21.6028C22.1548 9.63976 22.6515 8.9774 23.0793 8.26673C23.4381 7.66646 23.4381 6.9282 23.0793 6.32793C22.1511 4.79645 20.9182 3.47194 19.457 2.43652L15.6001 8.9567L14.8342 10.2538Z" fill="#FAFAFA"/>
<path d="M12.7022 3.13091L10.86 0.00537109C7.86554 0.184762 5.12638 1.3301 2.99438 3.13091H12.7022Z" fill="#FAFAFA"/>
<path d="M9.21792 11.462L7.47231 8.49512L4.91943 12.8143C6.73404 13.863 8.83154 14.4978 11.067 14.5944L9.21792 11.462Z" fill="#FAFAFA"/>
<path d="M1.74561 4.33936C1.19364 4.95342 0.696865 5.61579 0.269087 6.32646C-0.0896955 6.92673 -0.0896955 7.66499 0.269087 8.26526C1.18674 9.79008 2.42178 11.1148 3.89141 12.1498L8.51418 4.33936H1.74561Z" fill="#FAFAFA"/>
<path d="M10.6392 11.46L12.4814 14.5855C15.3748 14.4238 18.1375 13.327 20.3539 11.46H10.6392Z" fill="#FAFAFA"/>
<path d="M15.8692 6.0993L18.4221 1.78011C16.5492 0.698967 14.4421 0.0881406 12.2814 0L15.8692 6.0993Z" fill="#FAFAFA"/>
</svg>
